<mxfile host="app.diagrams.net" modified="2024-04-08T09:35:05.552Z" agent="Mozilla/5.0 (Windows NT 10.0; Win64; x64; rv:124.0) Gecko/20100101 Firefox/124.0" version="24.2.2" etag="xiDhNkGw0OBjJmuD3_Tt" type="github">
  <diagram name="Page-1" id="FH-MjQ3Gdre_km2aux0O">
    <mxGraphModel>
      <root>
        <mxCell id="0" />
        <mxCell id="1" parent="0" />
      </root>
    </mxGraphModel>
  </diagram>
</mxfile>
